<?xml version="1.0" encoding="utf-8"?>
<!-- Generator: Adobe Illustrator 18.1.1, SVG Export Plug-In . SVG Version: 6.00 Build 0)  -->
<svg version="1.1" xmlns="http://www.w3.org/2000/svg" xmlns:xlink="http://www.w3.org/1999/xlink" x="0px" y="0px"
	 viewBox="0 0 500 500" enable-background="new 0 0 500 500" xml:space="preserve">
<g id="Layer_1">
	<ellipse fill="#FFF7A2" stroke="#000000" stroke-miterlimit="10" cx="269.8" cy="262.8" rx="58.2" ry="99.4"/>
	<ellipse fill="#FFD28B" stroke="#000000" stroke-miterlimit="10" cx="269.4" cy="132" rx="37.3" ry="31.7"/>
	<path fill="none" stroke="#000000" stroke-miterlimit="10" d="M312.5,351c119.3,40.8-7,9.7-20.3,2.1c-2.3-1.3-3-2.6-2.8-3.3
		c0.2-0.5,0.9-0.8,1.9-0.9c1.2-0.1,2.8,0.4,3.1,1.2c0.4,0.8-1.2,1.2-2.7,0.8c-0.9-0.2-1.3-0.7-1.3-1c0-0.3,0.4-0.4,1-0.4
		c0.5,0,1,0.2,1,0.5c0,0.2-0.4,0.4-0.9,0.3c-0.3-0.1-0.6-0.2-0.6-0.4"/>
	<ellipse fill="none" stroke="#000000" stroke-miterlimit="10" cx="257.6" cy="123.1" rx="1.5" ry="3"/>
	<ellipse fill="none" stroke="#000000" stroke-miterlimit="10" cx="280.4" cy="123.1" rx="3" ry="3"/>
	<path fill="none" stroke="#000000" stroke-miterlimit="10" d="M234.9,114.7c-0.3-19-0.6-38.1-0.9-57.1c0-1.2,0.4-2.9,1.6-2.7
		c0.7,0.1,1.1,0.8,1.4,1.4c4.5,9.1,9,18.1,13.5,27.2c3.1,6.2,6.3,12.8,6.4,19.7"/>
	<path fill="none" stroke="#000000" stroke-miterlimit="10" d="M280.4,100.6c-0.6-9.9,1.2-19.9,5.1-29c1.3-3,2.8-5.9,3.6-9.1
		c1-4.2,1.1-9.6,5-11.5c6.1,8.8,8.2,19.8,8.2,30.5s-2,21.3-3.4,31.9"/>
	<path fill="none" stroke="#000000" stroke-miterlimit="10" d="M238.3,226.9c0.7,7-1.4,14.5,1.5,21c1,2.2,2.6,4.3,4.9,5.1
		c2.3,0.8,5.2-0.1,6.2-2.3c0.7-1.7,0.5-4,2-5c0.5,3.6,2.8,7,6,8.7c-0.3-4.2,1-8.7-0.7-12.5c-1.9-4.2-7.1-6.8-7.6-11.3"/>
	<path fill="none" stroke="#000000" stroke-miterlimit="10" d="M301.7,220.8c1.3,4.6,2.6,9.2,3.8,13.8c0.5,1.8,1,3.7,0.9,5.5
		c-0.2,4.1-3.2,7.4-6,10.3c-0.3,0.4-0.7,0.7-1.2,0.8c-0.8,0-1.3-1-1.5-1.8c-0.5-2-1.1-3.9-1.6-5.9c1.3,2.8-1.3,6.1-4.2,7.3
		c-2.9,1.2-6.2,1.3-9,2.7c-0.9-4,1-8.1,3.3-11.6c2.2-3.5,4.9-6.9,5.5-11"/>
	<path fill="none" stroke="#000000" stroke-miterlimit="10" d="M243.6,353.8c-2.5,6.5-3.4,13.6-2.7,20.5c0,0.4,0.1,0.7,0.3,1
		c0.3,0.5,1,0.7,1.6,0.8c1.8,0.3,3.7,0.6,5.5,0.2c1.8-0.5,3.4-2,3.4-3.8c0.9,1.2,1.4,2.6,1.5,4.1c0.8,0.8,2.3,0.4,3-0.5
		c0.7-0.9,0.8-2.1,0.9-3.3c0.3-3.6,0.3-7.1,0.1-10.7"/>
	<path fill="none" stroke="#000000" stroke-miterlimit="10" d="M291.6,355.8c4.6,2.6,5.7,8.6,6.3,13.8c0.1,1.2,0.2,2.6-0.8,3.3
		c-0.5,0.4-1.2,0.4-1.9,0.4c-2.8,0-5.6,0-8.4,0c-1.1,0-2.6-0.7-2.1-1.7c0,1.4,0,2.8,0,4.1c-2.7,1-5.7,1.4-8.6,1.2
		c-0.5,0-0.9-0.1-1.3-0.4c-0.3-0.3-0.4-0.8-0.4-1.3c-0.5-5,0.3-10.1,2.1-14.7"/>
</g>
<g id="Layer_2">
	<path fill="none" stroke="#000000" stroke-miterlimit="10" d="M62.8,339c0,39.1,13.9,70.7,31.1,70.7"/>
	<path fill="none" stroke="#000000" stroke-miterlimit="10" d="M93.9,339c0,36.7,10.6,66.5,23.8,66.5"/>
	<path fill="none" stroke="#000000" stroke-miterlimit="10" d="M130.4,346.4c0,29.7,10.4,53.7,23.2,53.7"/>
	<path fill="none" stroke="#000000" stroke-miterlimit="10" d="M174.3,339c0,44.8,11.5,81.1,25.6,81.1"/>
	<path fill="none" stroke="#000000" stroke-miterlimit="10" d="M218.9,348.9c0,39.4,9.3,71.2,20.7,71.2"/>
	<path fill="none" stroke="#000000" stroke-miterlimit="10" d="M277.4,394.5c0,31,5.3,56.1,11.9,56.1"/>
	<path fill="none" stroke="#000000" stroke-miterlimit="10" d="M399.3,405.5c0,44.2-8.2,79.9-18.3,79.9"/>
	<path fill="none" stroke="#000000" stroke-miterlimit="10" d="M360.3,420.1c0,42.1-10.6,76.2-23.8,76.2"/>
	<path fill="none" stroke="#000000" stroke-miterlimit="10" d="M214,445.5c0,16.7,2.2,30.2,4.9,30.2"/>
	<path fill="none" stroke="#000000" stroke-miterlimit="10" d="M174.3,440.3c0,29.7-1.4,53.7-3,53.7"/>
	<path fill="none" stroke="#000000" stroke-miterlimit="10" d="M112.1,417.1c0,32.4-0.3,58.5-0.6,58.5"/>
	<path fill="none" stroke="#000000" stroke-miterlimit="10" d="M26.8,405.5c0,22.6,0.5,40.9,1.2,40.9"/>
	<path fill="none" stroke="#000000" stroke-miterlimit="10" d="M150,420.1c0,14,1.6,25.3,3.7,25.3"/>
	<line fill="none" stroke="#000000" stroke-miterlimit="10" x1="433.5" y1="346" x2="433.5" y2="417"/>
	<path fill="none" stroke="#000000" stroke-miterlimit="10" d="M479.8,339c0,28.3,3.8,51.2,8.5,51.2"/>
	<path fill="none" stroke="#000000" stroke-miterlimit="10" d="M477.4,445.5c0,18.7-5.7,33.8-12.8,33.8"/>
	<path fill="none" stroke="#000000" stroke-miterlimit="10" d="M450.6,346c0,29.9,3,54,6.7,54"/>
	<path fill="none" stroke="#000000" stroke-miterlimit="10" d="M378,346c0,32.9,1.4,59.5,3,59.5"/>
	<path fill="none" stroke="#000000" stroke-miterlimit="10" d="M340.8,400c0,18.1-5.7,32.8-12.8,32.8"/>
	<path fill="none" stroke="#000000" stroke-miterlimit="10" d="M300.6,394.5c0,35.2-10.4,63.7-23.2,63.7"/>
	<line fill="none" stroke="#000000" stroke-miterlimit="10" x1="239.5" y1="380" x2="239.5" y2="453"/>
	<path fill="none" stroke="#000000" stroke-miterlimit="10" d="M239.6,462.4c0,9.4-4.6,16.9-10.4,16.9"/>
	<path fill="none" stroke="#000000" stroke-miterlimit="10" d="M190.2,362.2c0,55.4-5.2,100.2-11.6,100.2"/>
	<path fill="none" stroke="#000000" stroke-miterlimit="10" d="M125.6,375.8c0,60.6-11.7,109.6-26.2,109.6"/>
	<path fill="none" stroke="#000000" stroke-miterlimit="10" d="M56.7,356.1c0,46.5-3.3,84.1-7.3,84.1"/>
	<line fill="none" stroke="#000000" stroke-miterlimit="10" x1="14.5" y1="331" x2="14.5" y2="471"/>
	<path fill="none" stroke="#000000" stroke-miterlimit="10" d="M78.3,430.6c0,15.3-2,27.7-4.6,27.7"/>
	<path fill="none" stroke="#000000" stroke-miterlimit="10" d="M37.1,353.7c0,59.1,5.5,106.9,12.2,106.9"/>
	<line fill="none" stroke="#000000" stroke-miterlimit="10" x1="327.5" y1="433" x2="327.5" y2="456"/>
	<path fill="none" stroke="#000000" stroke-miterlimit="10" d="M314,462.4c0,4.8-3.2,8.6-7.2,8.6"/>
	<path fill="none" stroke="#000000" stroke-miterlimit="10" d="M269.8,420.1c0,42.1-3.7,76.2-8.2,76.2"/>
	<path fill="none" stroke="#000000" stroke-miterlimit="10" d="M415.2,356.1c0,61.1-1.1,110.6-2.4,110.6"/>
	<path fill="none" stroke="#000000" stroke-miterlimit="10" d="M484.1,412.3c0,24.2-3,43.7-6.7,43.7"/>
	<path fill="none" stroke="#000000" stroke-miterlimit="10" d="M464.6,390.3c0,34.7-3.3,62.7-7.3,62.7"/>
	<path fill="none" stroke="#000000" stroke-miterlimit="10" d="M427.4,334.8c0,16.5-3.8,29.9-8.5,29.9"/>
	<path fill="none" stroke="#000000" stroke-miterlimit="10" d="M399.3,334.8c0,16.5-5.5,29.9-12.2,29.9"/>
	<path fill="none" stroke="#000000" stroke-miterlimit="10" d="M366.4,334.8c0,22.6-1.4,41-3.1,41"/>
	<line fill="none" stroke="#000000" stroke-miterlimit="10" x1="327.5" y1="451" x2="327.5" y2="462"/>
	<path fill="none" stroke="#000000" stroke-miterlimit="10" d="M56.7,172.6c0,92-4.6,166.5-10.4,166.5"/>
	<path fill="none" stroke="#000000" stroke-miterlimit="10" d="M93.9,168.3c0,94.4,5.3,170.7,11.9,170.7"/>
	<path fill="none" stroke="#000000" stroke-miterlimit="10" d="M56.7,172.6c0-5.1-14.7-9.1-32.9-9.1"/>
	<path fill="none" stroke="#000000" stroke-miterlimit="10" d="M26.8,120.1c0,13.8,13.4,25,29.9,25"/>
	<path fill="none" stroke="#000000" stroke-miterlimit="10" d="M23.7,80.5c0-15.5,21-28,47-28"/>
	<path fill="none" stroke="#000000" stroke-miterlimit="10" d="M112.5,25.6c0,16.5,21.1,29.9,47.3,29.9"/>
	<path fill="none" stroke="#000000" stroke-miterlimit="10" d="M111.5,34.2c0-4.7,18.8-8.5,42.1-8.5"/>
	<path fill="none" stroke="#000000" stroke-miterlimit="10" d="M117.6,108c0-22.9-8-41.5-17.8-41.5"/>
	<path fill="none" stroke="#000000" stroke-miterlimit="10" d="M96.3,100.3c0-26.5-8-47.9-18-47.9"/>
	<path fill="none" stroke="#000000" stroke-miterlimit="10" d="M62.8,80.5c0,15.2-11.5,27.4-25.6,27.4"/>
	<path fill="none" stroke="#000000" stroke-miterlimit="10" d="M32.3,29.9c0,5.9,24.6,10.7,55,10.7"/>
	<path fill="none" stroke="#000000" stroke-miterlimit="10" d="M130.4,73.2c0,37.4-16.4,67.7-36.6,67.7"/>
	<path fill="none" stroke="#000000" stroke-miterlimit="10" d="M142,115.9c0,31.3-20.5,56.7-45.7,56.7"/>
	<path fill="none" stroke="#000000" stroke-miterlimit="10" d="M125.6,17.7c0,24.6-7.5,44.5-16.8,44.5"/>
	<path fill="none" stroke="#000000" stroke-miterlimit="10" d="M172.8,23.2c0,27.6-10.2,50-22.9,50"/>
	<path fill="none" stroke="#000000" stroke-miterlimit="10" d="M142,13.4c0-1.3-18.9-2.4-42.2-2.4"/>
	<path fill="none" stroke="#000000" stroke-miterlimit="10" d="M78.3,12.2c0,3-20.6,5.5-46,5.5"/>
	<path fill="none" stroke="#000000" stroke-miterlimit="10" d="M28,23.2c0,21.6,15.5,39,34.8,39"/>
	<path fill="none" stroke="#000000" stroke-miterlimit="10" d="M23.7,66.5c0,11.5,16.1,20.7,36.1,20.7"/>
	<path fill="none" stroke="#000000" stroke-miterlimit="10" d="M14.5,100.3c0,28.5,10.1,51.5,22.6,51.5"/>
	<path fill="none" stroke="#000000" stroke-miterlimit="10" d="M62.8,129.3c0-7.4,11-13.4,24.5-13.4"/>
	<path fill="none" stroke="#000000" stroke-miterlimit="10" d="M87.3,12.2c0,48.7-6.1,88.1-13.6,88.1"/>
	<path fill="none" stroke="#000000" stroke-miterlimit="10" d="M70.7,159.2c0-1.3,15.7-2.4,35.1-2.4"/>
</g>
<g id="Layer_3">
	<ellipse fill="#EAFF17" stroke="#000000" stroke-miterlimit="10" cx="411.4" cy="29.2" rx="9" ry="6"/>
</g>
</svg>
